<svg width="65" height="90" viewBox="0 0 65 90" fill="none" xmlns="http://www.w3.org/2000/svg">
<rect x="1" y="6" width="63" height="45" rx="2" stroke="black" stroke-width="2" stroke-linecap="round" stroke-linejoin="round"/>
<path d="M8.7087 1.4855L6.9087 4.4855C6.50878 5.15203 6.98889 6 7.76619 6H23.2338C24.0111 6 24.4912 5.15203 24.0913 4.4855L23.5 3.5L22.2913 1.4855C22.1106 1.1843 21.7851 1 21.4338 1H9.56619C9.21493 1 8.88942 1.1843 8.7087 1.4855Z" stroke="black" stroke-width="2" stroke-linecap="round"/>
<path d="M12.2969 72.875H8.66406L7.65625 75H4.71094L10.7344 63.625H13.25L15.3516 75H12.5703L12.2969 72.875ZM9.66406 70.7578H12.0234L11.5234 66.8359L9.66406 70.7578ZM16.2734 75L18.2422 63.625L21.8594 63.6328C23.2865 63.638 24.3516 63.9089 25.0547 64.4453C25.7578 64.9818 26.0781 65.7344 26.0156 66.7031C25.9375 67.901 25.2812 68.75 24.0469 69.25C24.4896 69.4062 24.8333 69.6901 25.0781 70.1016C25.3281 70.5078 25.4349 70.9974 25.3984 71.5703C25.3255 72.6693 24.8906 73.5156 24.0938 74.1094C23.3021 74.7031 22.2161 75 20.8359 75H16.2734ZM19.7891 70.1641L19.3125 72.8906L20.9141 72.8984C21.4141 72.8984 21.8307 72.776 22.1641 72.5312C22.4974 72.2812 22.6953 71.9505 22.7578 71.5391C22.9036 70.6693 22.5703 70.2135 21.7578 70.1719L19.7891 70.1641ZM20.0938 68.3672L21.3516 68.375C22.513 68.349 23.1641 67.9036 23.3047 67.0391C23.4297 66.1849 22.987 65.7552 21.9766 65.75L20.5547 65.7422L20.0938 68.3672ZM31.0625 75.1562C29.8802 75.1302 28.9323 74.7396 28.2188 73.9844C27.5052 73.2292 27.1016 72.2188 27.0078 70.9531C26.9557 70.3281 27.0052 69.5938 27.1562 68.75C27.3073 67.901 27.5755 67.1198 27.9609 66.4062C28.3464 65.6927 28.8281 65.099 29.4062 64.625C30.375 63.8281 31.4896 63.4427 32.75 63.4688C33.526 63.4844 34.2031 63.6641 34.7812 64.0078C35.3646 64.3464 35.8307 64.8359 36.1797 65.4766C36.5286 66.1172 36.7318 66.8464 36.7891 67.6641C36.8307 68.2422 36.7943 68.901 36.6797 69.6406C36.5703 70.375 36.3646 71.0781 36.0625 71.75C35.7656 72.4167 35.3802 73.0052 34.9062 73.5156C34.4323 74.026 33.8724 74.4323 33.2266 74.7344C32.5859 75.0312 31.8646 75.1719 31.0625 75.1562ZM34.1094 67.6406C34.0573 66.3385 33.5521 65.6615 32.5938 65.6094C31.8542 65.5729 31.2422 65.8672 30.7578 66.4922C30.2734 67.112 29.9531 68.0286 29.7969 69.2422C29.6979 69.9922 29.6615 70.5729 29.6875 70.9844C29.7396 72.3073 30.25 72.987 31.2188 73.0234C31.8542 73.0547 32.401 72.8281 32.8594 72.3438C33.3177 71.8542 33.6484 71.1458 33.8516 70.2188C34.0547 69.2865 34.1406 68.4271 34.1094 67.6406ZM47.8359 63.625L46.5703 71.0469C46.388 72.3333 45.8568 73.3464 44.9766 74.0859C44.1016 74.8255 42.9974 75.1849 41.6641 75.1641C40.8359 75.1484 40.1172 74.9714 39.5078 74.6328C38.8984 74.2891 38.4479 73.8073 38.1562 73.1875C37.8698 72.5625 37.7734 71.8516 37.8672 71.0547L39.1328 63.625H41.8203L40.5625 71.0625C40.5312 71.3229 40.526 71.5703 40.5469 71.8047C40.5729 72.1901 40.6927 72.4896 40.9062 72.7031C41.125 72.9167 41.4323 73.0312 41.8281 73.0469C42.974 73.0833 43.6641 72.4193 43.8984 71.0547L45.1641 63.625H47.8359ZM57.8359 65.7422H54.5234L52.9219 75H50.2422L51.8516 65.7422H48.5938L48.9688 63.625H58.2031L57.8359 65.7422ZM20.8457 89H19.2344L20.1426 83.7754L18.4873 84.2441L18.7119 82.9404L21.8564 81.8906L22.0371 81.8857L20.8457 89ZM23.2383 88.2578C23.2318 88.0104 23.3164 87.8053 23.4922 87.6426C23.668 87.4798 23.8779 87.3984 24.1221 87.3984C24.363 87.3984 24.568 87.4733 24.7373 87.623C24.9066 87.7695 24.9945 87.9616 25.001 88.1992C25.0075 88.4434 24.9245 88.6484 24.752 88.8145C24.5794 88.9772 24.3678 89.0586 24.1172 89.0586C23.8698 89.0586 23.6631 88.9837 23.4971 88.834C23.3311 88.6842 23.2448 88.4922 23.2383 88.2578ZM28.1113 84.7568L28.8291 84.7617C29.1221 84.7552 29.363 84.6706 29.5518 84.5078C29.7406 84.3418 29.8529 84.1107 29.8887 83.8145C29.9147 83.5931 29.8708 83.4108 29.7568 83.2676C29.6429 83.1243 29.472 83.0511 29.2441 83.0479C29.0326 83.0413 28.8454 83.0999 28.6826 83.2236C28.5199 83.3473 28.4157 83.5117 28.3701 83.7168L26.7588 83.7266C26.7783 83.3424 26.902 83.0023 27.1299 82.7061C27.3577 82.4098 27.6605 82.182 28.0381 82.0225C28.4189 81.8597 28.8275 81.7799 29.2637 81.7832C29.9798 81.7995 30.543 81.9883 30.9531 82.3496C31.3633 82.7077 31.5505 83.1862 31.5146 83.7852C31.4723 84.4557 31.0345 84.9863 30.2012 85.377C30.5169 85.5332 30.7529 85.7497 30.9092 86.0264C31.0654 86.3031 31.1354 86.6156 31.1191 86.9639C31.0964 87.4001 30.958 87.7809 30.7041 88.1064C30.4502 88.4287 30.11 88.6777 29.6836 88.8535C29.2572 89.026 28.7998 89.1074 28.3115 89.0977C27.8851 89.0944 27.4977 89.0049 27.1494 88.8291C26.8044 88.6501 26.5391 88.4043 26.3535 88.0918C26.168 87.7793 26.0768 87.4212 26.0801 87.0176H27.6816C27.6849 87.2487 27.7533 87.4391 27.8867 87.5889C28.0202 87.7386 28.2074 87.8167 28.4482 87.8232C28.7184 87.8298 28.9577 87.75 29.166 87.584C29.3743 87.418 29.498 87.1999 29.5371 86.9297C29.5762 86.64 29.5322 86.4137 29.4053 86.251C29.2816 86.085 29.0732 85.9971 28.7803 85.9873L27.9209 85.9824L28.1113 84.7568ZM34.0537 83.7119L33.9463 84.3467C34.3695 83.8486 34.8838 83.6061 35.4893 83.6191C35.8083 83.6257 36.0703 83.7005 36.2754 83.8438C36.4805 83.987 36.6172 84.1774 36.6855 84.415C37.151 83.8714 37.6865 83.6061 38.292 83.6191C38.7803 83.6289 39.1416 83.8128 39.376 84.1709C39.6136 84.5257 39.6999 85.027 39.6348 85.6748L39.083 89H37.4717L38.0332 85.6699L38.0527 85.3818C38.0527 85.0596 37.9014 84.8936 37.5986 84.8838C37.3154 84.8838 37.0518 85.0286 36.8076 85.3184L36.168 89H34.5566L35.1133 85.6797L35.1328 85.3867C35.1328 85.0514 34.9814 84.8838 34.6787 84.8838C34.402 84.8838 34.1416 85.0286 33.8975 85.3184L33.248 89H31.6416L32.5596 83.7168L34.0537 83.7119ZM45.2549 86.3682C45.154 87.2243 44.9017 87.8981 44.498 88.3896C44.0944 88.8812 43.5638 89.1188 42.9062 89.1025C42.3854 89.0895 41.985 88.8714 41.7051 88.4482L41.5049 89H40.0498L41.3535 81.5H42.96L42.4375 84.1514C42.7923 83.79 43.1878 83.6126 43.624 83.6191C44.1416 83.6257 44.5452 83.8112 44.835 84.1758C45.1247 84.5371 45.2777 85.0303 45.2939 85.6553C45.2972 85.8636 45.2891 86.0671 45.2695 86.2656L45.2549 86.3682ZM43.6582 86.2705C43.6842 86.0719 43.6989 85.8831 43.7021 85.7041C43.7021 85.18 43.515 84.9066 43.1406 84.8838C42.8086 84.8708 42.5303 85.0124 42.3057 85.3086L41.9248 87.418C42.0257 87.6882 42.2471 87.8265 42.5889 87.833C43.113 87.8493 43.4434 87.5075 43.5801 86.8076L43.6484 86.373L43.6582 86.2705Z" fill="black"/>
</svg>
