<svg width="72" height="110" viewBox="0 0 72 110" fill="none" xmlns="http://www.w3.org/2000/svg">
<path fill-rule="evenodd" clip-rule="evenodd" d="M10 0H56.5L62 6V52H10V0ZM12 2V50H60V7L55.5 2H12Z" fill="black"/>
<path d="M0.5 70.7578C0.661458 69.4245 1.06771 68.3568 1.71875 67.5547C2.36979 66.7526 3.21875 66.3646 4.26562 66.3906C4.98438 66.4115 5.58073 66.7135 6.05469 67.2969L6.875 63H9.45312L7.375 75H5.08594L5.19531 74.0859C4.5651 74.8255 3.86458 75.1849 3.09375 75.1641C2.28125 75.1536 1.64323 74.8542 1.17969 74.2656C0.721354 73.6719 0.476562 72.8776 0.445312 71.8828C0.434896 71.5547 0.445312 71.2344 0.476562 70.9219L0.5 70.7578ZM3.0625 70.9297C3.02083 71.263 3.0026 71.5547 3.00781 71.8047C3.00781 72.6693 3.29948 73.1094 3.88281 73.125C4.38802 73.1406 4.83854 72.8984 5.23438 72.3984L5.8125 69.1562C5.64062 68.6771 5.29688 68.4297 4.78125 68.4141C4.30208 68.4036 3.91406 68.612 3.61719 69.0391C3.32552 69.4609 3.14062 70.0911 3.0625 70.9297ZM14.9922 68.9297C14.7161 68.888 14.4505 68.862 14.1953 68.8516C13.4245 68.8307 12.8359 69.0964 12.4297 69.6484L11.4766 75H8.90625L10.375 66.5469L12.7734 66.5391L12.5781 67.6484C13.1302 66.7943 13.7812 66.3672 14.5312 66.3672C14.7448 66.3672 15.0104 66.4036 15.3281 66.4766L14.9922 68.9297ZM19.5078 66.3906C20.263 66.401 20.9167 66.5911 21.4688 66.9609C22.0208 67.3255 22.4245 67.8359 22.6797 68.4922C22.9401 69.1484 23.0339 69.8776 22.9609 70.6797L22.9453 70.8516C22.7995 72.1484 22.3177 73.1953 21.5 73.9922C20.6823 74.7891 19.6719 75.1771 18.4688 75.1562C17.7188 75.1458 17.0703 74.9609 16.5234 74.6016C15.9766 74.237 15.5703 73.7292 15.3047 73.0781C15.0443 72.4271 14.9505 71.7031 15.0234 70.9062C15.1536 69.5208 15.6276 68.4167 16.4453 67.5938C17.2682 66.7708 18.2891 66.3698 19.5078 66.3906ZM17.5938 70.9062L17.5703 71.3672C17.4974 72.5286 17.8516 73.1198 18.6328 73.1406C19.6432 73.1719 20.2292 72.3516 20.3906 70.6797L20.4219 69.9688C20.4323 69.5 20.3438 69.1276 20.1562 68.8516C19.974 68.5703 19.7031 68.4245 19.3438 68.4141C18.8698 68.3984 18.4792 68.5938 18.1719 69C17.8698 69.401 17.6771 70.0365 17.5938 70.9062ZM31.7266 70.7812C31.6172 71.6667 31.3854 72.4557 31.0312 73.1484C30.6771 73.8359 30.237 74.349 29.7109 74.6875C29.1901 75.0208 28.6068 75.1797 27.9609 75.1641C27.2214 75.1432 26.6224 74.8516 26.1641 74.2891L25.3984 78.25H22.8281L24.8594 66.5469L27.2344 66.5391L27.1016 67.3438C27.6693 66.6875 28.3385 66.3698 29.1094 66.3906C29.9323 66.401 30.5729 66.6953 31.0312 67.2734C31.4948 67.8516 31.7422 68.6406 31.7734 69.6406C31.7839 69.9635 31.7682 70.3438 31.7266 70.7812ZM29.2266 69.7344C29.2005 68.875 28.9089 68.4375 28.3516 68.4219C27.8099 68.3906 27.3594 68.612 27 69.0859L26.3984 72.4375C26.5599 72.8906 26.9193 73.1224 27.4766 73.1328C28.388 73.1484 28.9479 72.3646 29.1562 70.7812C29.2031 70.2812 29.2266 69.9323 29.2266 69.7344ZM37.9922 76.9609H31.1328L31.4766 75H38.3359L37.9922 76.9609ZM43.0078 71.2812L45.1953 66.5469H48.0312L43.0781 76.2656C42.7083 77.0312 42.2812 77.5833 41.7969 77.9219C41.3177 78.2656 40.7448 78.4375 40.0781 78.4375C39.7812 78.4375 39.4036 78.3802 38.9453 78.2656L39.1406 76.3828H39.4375C39.7552 76.3828 40.0339 76.3307 40.2734 76.2266C40.513 76.1276 40.7135 75.9323 40.875 75.6406L41.2422 74.9375L39.8906 66.5469H42.5469L43.0078 71.2812ZM52.0547 66.3906C52.8099 66.401 53.4635 66.5911 54.0156 66.9609C54.5677 67.3255 54.9714 67.8359 55.2266 68.4922C55.487 69.1484 55.5807 69.8776 55.5078 70.6797L55.4922 70.8516C55.3464 72.1484 54.8646 73.1953 54.0469 73.9922C53.2292 74.7891 52.2188 75.1771 51.0156 75.1562C50.2656 75.1458 49.6172 74.9609 49.0703 74.6016C48.5234 74.237 48.1172 73.7292 47.8516 73.0781C47.5911 72.4271 47.4974 71.7031 47.5703 70.9062C47.7005 69.5208 48.1745 68.4167 48.9922 67.5938C49.8151 66.7708 50.8359 66.3698 52.0547 66.3906ZM50.1406 70.9062L50.1172 71.3672C50.0443 72.5286 50.3984 73.1198 51.1797 73.1406C52.1901 73.1719 52.776 72.3516 52.9375 70.6797L52.9688 69.9688C52.9792 69.5 52.8906 69.1276 52.7031 68.8516C52.5208 68.5703 52.25 68.4245 51.8906 68.4141C51.4167 68.3984 51.026 68.5938 50.7188 69C50.4167 69.401 50.224 70.0365 50.1406 70.9062ZM61.1484 74.0781C60.5182 74.8229 59.7578 75.1849 58.8672 75.1641C58.0391 75.1536 57.4141 74.8646 56.9922 74.2969C56.5755 73.7292 56.4141 72.9688 56.5078 72.0156L57.4219 66.5469H59.9922L59.0625 72.0469C59.0469 72.1979 59.0469 72.3359 59.0625 72.4609C59.099 72.888 59.3516 73.1094 59.8203 73.125C60.362 73.1458 60.8229 72.9323 61.2031 72.4844L62.25 66.5469H64.8359L63.3672 75H60.9766L61.1484 74.0781ZM70.8516 68.9297C70.5755 68.888 70.3099 68.862 70.0547 68.8516C69.2839 68.8307 68.6953 69.0964 68.2891 69.6484L67.3359 75H64.7656L66.2344 66.5469L68.6328 66.5391L68.4375 67.6484C68.9896 66.7943 69.6406 66.3672 70.3906 66.3672C70.6042 66.3672 70.8698 66.4036 71.1875 66.4766L70.8516 68.9297ZM22.3125 95.9609H15.4531L15.7969 94H22.6562L22.3125 95.9609ZM23.8672 89.7578C24.0286 88.4245 24.4349 87.3568 25.0859 86.5547C25.737 85.7526 26.5859 85.3646 27.6328 85.3906C28.3516 85.4115 28.9479 85.7135 29.4219 86.2969L30.2422 82H32.8203L30.7422 94H28.4531L28.5625 93.0859C27.9323 93.8255 27.2318 94.1849 26.4609 94.1641C25.6484 94.1536 25.0104 93.8542 24.5469 93.2656C24.0885 92.6719 23.8438 91.8776 23.8125 90.8828C23.8021 90.5547 23.8125 90.2344 23.8438 89.9219L23.8672 89.7578ZM26.4297 89.9297C26.388 90.263 26.3698 90.5547 26.375 90.8047C26.375 91.6693 26.6667 92.1094 27.25 92.125C27.7552 92.1406 28.2057 91.8984 28.6016 91.3984L29.1797 88.1562C29.0078 87.6771 28.6641 87.4297 28.1484 87.4141C27.6693 87.4036 27.2812 87.612 26.9844 88.0391C26.6927 88.4609 26.5078 89.0911 26.4297 89.9297ZM37.0234 94C36.9505 93.7969 36.9141 93.5417 36.9141 93.2344C36.3359 93.8698 35.6458 94.1771 34.8438 94.1562C34.1094 94.1458 33.5 93.901 33.0156 93.4219C32.5312 92.9427 32.3047 92.362 32.3359 91.6797C32.362 90.763 32.7448 90.0599 33.4844 89.5703C34.224 89.0755 35.2344 88.8281 36.5156 88.8281L37.375 88.8438L37.4688 88.3672L37.5 87.9531C37.4792 87.4792 37.2422 87.2344 36.7891 87.2188C36.2266 87.2083 35.8802 87.5182 35.75 88.1484L33.1719 88.1562C33.1979 87.5885 33.3828 87.0964 33.7266 86.6797C34.0703 86.2578 34.5365 85.9349 35.125 85.7109C35.7188 85.4818 36.349 85.375 37.0156 85.3906C37.6562 85.4062 38.2161 85.5417 38.6953 85.7969C39.1797 86.0469 39.5417 86.3984 39.7812 86.8516C40.0208 87.2995 40.112 87.8177 40.0547 88.4062L39.4219 92.3828L39.3828 92.8672C39.362 93.2526 39.4115 93.5807 39.5312 93.8516L39.5234 94H37.0234ZM35.5547 92.2969C36.0807 92.3177 36.5417 92.0859 36.9375 91.6016L37.1953 90.2422L36.5312 90.2344C36.1198 90.2448 35.7656 90.3672 35.4688 90.6016C35.1719 90.8307 34.9974 91.1458 34.9453 91.5469C34.9193 91.7604 34.9583 91.9375 35.0625 92.0781C35.1719 92.2135 35.3359 92.2865 35.5547 92.2969ZM45.3906 83.4453L45.0234 85.5469H46.375L46.0547 87.375H44.7031L44.0469 91.2578C44.0104 91.5234 44.026 91.724 44.0938 91.8594C44.1667 91.9948 44.3438 92.0677 44.625 92.0781C44.7344 92.0833 44.9583 92.0703 45.2969 92.0391L45.1094 93.9453C44.6771 94.0859 44.2161 94.151 43.7266 94.1406C42.9297 94.1302 42.3333 93.8958 41.9375 93.4375C41.5417 92.9792 41.3802 92.3568 41.4531 91.5703L42.1406 87.375H41.0938L41.4062 85.5469H42.4531L42.8203 83.4453H45.3906ZM50.7422 94C50.6693 93.7969 50.6328 93.5417 50.6328 93.2344C50.0547 93.8698 49.3646 94.1771 48.5625 94.1562C47.8281 94.1458 47.2188 93.901 46.7344 93.4219C46.25 92.9427 46.0234 92.362 46.0547 91.6797C46.0807 90.763 46.4635 90.0599 47.2031 89.5703C47.9427 89.0755 48.9531 88.8281 50.2344 88.8281L51.0938 88.8438L51.1875 88.3672L51.2188 87.9531C51.1979 87.4792 50.9609 87.2344 50.5078 87.2188C49.9453 87.2083 49.599 87.5182 49.4688 88.1484L46.8906 88.1562C46.9167 87.5885 47.1016 87.0964 47.4453 86.6797C47.7891 86.2578 48.2552 85.9349 48.8438 85.7109C49.4375 85.4818 50.0677 85.375 50.7344 85.3906C51.375 85.4062 51.9349 85.5417 52.4141 85.7969C52.8984 86.0469 53.2604 86.3984 53.5 86.8516C53.7396 87.2995 53.8307 87.8177 53.7734 88.4062L53.1406 92.3828L53.1016 92.8672C53.0807 93.2526 53.1302 93.5807 53.25 93.8516L53.2422 94H50.7422ZM49.2734 92.2969C49.7995 92.3177 50.2604 92.0859 50.6562 91.6016L50.9141 90.2422L50.25 90.2344C49.8385 90.2448 49.4844 90.3672 49.1875 90.6016C48.8906 90.8307 48.7161 91.1458 48.6641 91.5469C48.638 91.7604 48.6771 91.9375 48.7812 92.0781C48.8906 92.2135 49.0547 92.2865 49.2734 92.2969ZM7.8291 105.827L8.88867 102.717H10.4609L8.33691 108H6.98438L6.68164 104.885L5.29004 108H3.92773L3.63477 102.717H5.14355L5.09473 105.861L6.44727 102.717H7.56543L7.8291 105.827ZM13.2148 102.619C13.6868 102.626 14.0954 102.744 14.4404 102.976C14.7855 103.203 15.0378 103.522 15.1973 103.933C15.36 104.343 15.4186 104.799 15.373 105.3L15.3633 105.407C15.2721 106.218 14.971 106.872 14.46 107.37C13.9489 107.868 13.3174 108.111 12.5654 108.098C12.0967 108.091 11.6914 107.976 11.3496 107.751C11.0078 107.523 10.7539 107.206 10.5879 106.799C10.4251 106.392 10.3665 105.939 10.4121 105.441C10.4935 104.576 10.7897 103.885 11.3008 103.371C11.8151 102.857 12.4531 102.606 13.2148 102.619ZM12.0186 105.441L12.0039 105.729C11.9583 106.455 12.1797 106.825 12.668 106.838C13.2995 106.857 13.6657 106.345 13.7666 105.3L13.7861 104.855C13.7926 104.562 13.7373 104.33 13.6201 104.157C13.5062 103.981 13.3369 103.89 13.1123 103.884C12.8161 103.874 12.5719 103.996 12.3799 104.25C12.1911 104.501 12.0706 104.898 12.0186 105.441ZM19.4453 104.206C19.2728 104.18 19.1068 104.164 18.9473 104.157C18.4655 104.144 18.0977 104.31 17.8438 104.655L17.248 108H15.6416L16.5596 102.717L18.0586 102.712L17.9365 103.405C18.2816 102.871 18.6885 102.604 19.1572 102.604C19.2907 102.604 19.4567 102.627 19.6553 102.673L19.4453 104.206ZM22.6191 101.403L22.3896 102.717H23.2344L23.0342 103.859H22.1895L21.7793 106.286C21.7565 106.452 21.7663 106.577 21.8086 106.662C21.8542 106.747 21.9648 106.792 22.1406 106.799C22.209 106.802 22.349 106.794 22.5605 106.774L22.4434 107.966C22.1732 108.054 21.8851 108.094 21.5791 108.088C21.0811 108.081 20.7083 107.935 20.4609 107.648C20.2135 107.362 20.1126 106.973 20.1582 106.481L20.5879 103.859H19.9336L20.1289 102.717H20.7832L21.0127 101.403H22.6191ZM25.3096 103.293C25.7035 102.834 26.1576 102.608 26.6719 102.614C27.2025 102.627 27.5947 102.821 27.8486 103.195C28.1058 103.57 28.1986 104.077 28.127 104.719L27.5801 108H25.9736L26.5254 104.699C26.5384 104.589 26.5417 104.484 26.5352 104.387C26.5124 104.064 26.3333 103.898 25.998 103.889C25.7083 103.882 25.4512 103.988 25.2266 104.206L24.5527 108H22.9463L24.25 100.5H25.8564L25.3096 103.293ZM28.7617 107.258C28.7552 107.01 28.8398 106.805 29.0156 106.643C29.1914 106.48 29.4014 106.398 29.6455 106.398C29.8864 106.398 30.0915 106.473 30.2607 106.623C30.43 106.77 30.5179 106.962 30.5244 107.199C30.5309 107.443 30.4479 107.648 30.2754 107.814C30.1029 107.977 29.8913 108.059 29.6406 108.059C29.3932 108.059 29.1865 107.984 29.0205 107.834C28.8545 107.684 28.7682 107.492 28.7617 107.258ZM33.1855 108H31.5742L32.873 100.5H34.4844L33.1855 108ZM36.833 108.098C36.361 108.094 35.9395 107.984 35.5684 107.766C35.2005 107.544 34.9222 107.238 34.7334 106.848C34.5446 106.454 34.4697 106.021 34.5088 105.549L34.5234 105.412C34.6113 104.543 34.9124 103.856 35.4268 103.352C35.9443 102.844 36.5775 102.6 37.3262 102.619C37.7786 102.626 38.166 102.741 38.4883 102.966C38.8105 103.187 39.0465 103.495 39.1963 103.889C39.346 104.279 39.3949 104.719 39.3428 105.207L39.25 105.876H36.1055C36.112 106.153 36.1901 106.377 36.3398 106.55C36.4896 106.722 36.7077 106.813 36.9941 106.823C37.4596 106.836 37.8779 106.657 38.249 106.286L38.9229 107.18C38.7243 107.463 38.446 107.686 38.0879 107.849C37.7331 108.008 37.3441 108.091 36.9209 108.098H36.833ZM37.2236 103.884C36.9958 103.877 36.7972 103.949 36.6279 104.099C36.4619 104.248 36.3171 104.499 36.1934 104.851H37.7998L37.8291 104.709C37.8486 104.595 37.8519 104.488 37.8389 104.387C37.7835 104.061 37.5785 103.894 37.2236 103.884ZM42.5166 106.486C42.5589 106.271 42.3929 106.11 42.0186 106.003L41.6719 105.915C41.1055 105.765 40.6904 105.555 40.4268 105.285C40.1631 105.015 40.0394 104.694 40.0557 104.323C40.0719 103.815 40.2965 103.404 40.7295 103.088C41.1657 102.769 41.6963 102.613 42.3213 102.619C42.943 102.626 43.446 102.784 43.8301 103.093C44.2174 103.402 44.4144 103.819 44.4209 104.343L42.8193 104.338C42.8324 103.921 42.6484 103.713 42.2676 103.713C42.1048 103.713 41.9535 103.762 41.8135 103.859C41.6735 103.954 41.5905 104.081 41.5645 104.24C41.5091 104.504 41.7419 104.685 42.2627 104.782C42.7152 104.89 43.0651 105.015 43.3125 105.158C43.5599 105.298 43.7487 105.472 43.8789 105.681C44.0091 105.889 44.0693 106.14 44.0596 106.433C44.0498 106.752 43.9456 107.036 43.7471 107.287C43.5485 107.538 43.2604 107.738 42.8828 107.888C42.5085 108.037 42.1016 108.107 41.6621 108.098C41.2812 108.094 40.9264 108.015 40.5977 107.858C40.2721 107.702 40.0166 107.491 39.8311 107.224C39.6488 106.953 39.5544 106.644 39.5479 106.296L41.042 106.306C41.0485 106.774 41.2829 107.006 41.7451 106.999C41.9437 106.999 42.113 106.955 42.2529 106.867C42.3929 106.776 42.4808 106.649 42.5166 106.486ZM47.5361 106.486C47.5785 106.271 47.4124 106.11 47.0381 106.003L46.6914 105.915C46.125 105.765 45.71 105.555 45.4463 105.285C45.1826 105.015 45.0589 104.694 45.0752 104.323C45.0915 103.815 45.3161 103.404 45.749 103.088C46.1852 102.769 46.7158 102.613 47.3408 102.619C47.9626 102.626 48.4655 102.784 48.8496 103.093C49.237 103.402 49.4339 103.819 49.4404 104.343L47.8389 104.338C47.8519 103.921 47.668 103.713 47.2871 103.713C47.1243 103.713 46.973 103.762 46.833 103.859C46.693 103.954 46.61 104.081 46.584 104.24C46.5286 104.504 46.7614 104.685 47.2822 104.782C47.7347 104.89 48.0846 105.015 48.332 105.158C48.5794 105.298 48.7682 105.472 48.8984 105.681C49.0286 105.889 49.0889 106.14 49.0791 106.433C49.0693 106.752 48.9652 107.036 48.7666 107.287C48.568 107.538 48.2799 107.738 47.9023 107.888C47.528 108.037 47.1211 108.107 46.6816 108.098C46.3008 108.094 45.946 108.015 45.6172 107.858C45.2917 107.702 45.0361 107.491 44.8506 107.224C44.6683 106.953 44.5739 106.644 44.5674 106.296L46.0615 106.306C46.068 106.774 46.3024 107.006 46.7646 106.999C46.9632 106.999 47.1325 106.955 47.2725 106.867C47.4124 106.776 47.5003 106.649 47.5361 106.486ZM53.2051 109.226H48.918L49.1328 108H53.4199L53.2051 109.226ZM56.335 102.712L56.2275 103.347C56.6507 102.849 57.165 102.606 57.7705 102.619C58.0895 102.626 58.3516 102.701 58.5566 102.844C58.7617 102.987 58.8984 103.177 58.9668 103.415C59.4323 102.871 59.9678 102.606 60.5732 102.619C61.0615 102.629 61.4229 102.813 61.6572 103.171C61.8949 103.526 61.9811 104.027 61.916 104.675L61.3643 108H59.7529L60.3145 104.67L60.334 104.382C60.334 104.06 60.1826 103.894 59.8799 103.884C59.5967 103.884 59.333 104.029 59.0889 104.318L58.4492 108H56.8379L57.3945 104.68L57.4141 104.387C57.4141 104.051 57.2627 103.884 56.96 103.884C56.6833 103.884 56.4229 104.029 56.1787 104.318L55.5293 108H53.9229L54.8408 102.717L56.335 102.712ZM67.5361 105.368C67.4352 106.224 67.1829 106.898 66.7793 107.39C66.3757 107.881 65.8451 108.119 65.1875 108.103C64.6667 108.09 64.2663 107.871 63.9863 107.448L63.7861 108H62.3311L63.6348 100.5H65.2412L64.7188 103.151C65.0736 102.79 65.4691 102.613 65.9053 102.619C66.4229 102.626 66.8265 102.811 67.1162 103.176C67.4059 103.537 67.5589 104.03 67.5752 104.655C67.5785 104.864 67.5703 105.067 67.5508 105.266L67.5361 105.368ZM65.9395 105.271C65.9655 105.072 65.9801 104.883 65.9834 104.704C65.9834 104.18 65.7962 103.907 65.4219 103.884C65.0898 103.871 64.8115 104.012 64.5869 104.309L64.2061 106.418C64.307 106.688 64.5283 106.826 64.8701 106.833C65.3942 106.849 65.7246 106.507 65.8613 105.808L65.9297 105.373L65.9395 105.271Z" fill="black"/>
<path d="M22 16V1H50V16H22Z" stroke="black" stroke-width="2"/>
<rect x="18" y="24" width="36" height="27" fill="white" stroke="black" stroke-width="2"/>
<rect x="41" y="6" width="4" height="5" fill="white" stroke="black" stroke-width="2"/>
</svg>